<svg width="32" height="32" viewBox="0 0 32 32" fill="none" xmlns="http://www.w3.org/2000/svg">
<path d="M22.9514 12L17.1146 3.25335C16.99 3.07675 16.824 2.93337 16.6312 2.83575C16.4384 2.73814 16.2246 2.68925 16.0086 2.69335C15.5821 2.69335 15.1557 2.88002 14.9025 3.26669L9.06579 12H2.68269C1.94976 12 1.3501 12.6 1.3501 13.3334C1.3501 13.4534 1.36342 13.5734 1.4034 13.6934L4.78818 26.0534C5.09467 27.1734 6.12077 28 7.34675 28H24.6704C25.8964 28 26.9225 27.1734 27.2423 26.0534L30.6271 13.6934L30.6671 13.3334C30.6671 12.6 30.0674 12 29.3345 12H22.9514ZM12.0108 12L16.0086 6.13335L20.0063 12H12.0108ZM16.0086 22.6667C14.5427 22.6667 13.3434 21.4667 13.3434 20C13.3434 18.5334 14.5427 17.3334 16.0086 17.3334C17.4744 17.3334 18.6738 18.5334 18.6738 20C18.6738 21.4667 17.4744 22.6667 16.0086 22.6667Z" fill="white"/>
</svg>
